<svg id="Layer_1" data-name="Layer 1" xmlns="http://www.w3.org/2000/svg" viewBox="0 0 611 573"><defs><style>.cls-1{fill:#4169e1;}.cls-2{fill:#a9a9a9;}.cls-3{fill:#d0d0d0;}.cls-4{fill:#d8d8d8;}.cls-5{fill:#e8e8e8;}.cls-6{fill:#fff;}.cls-6,.cls-7{stroke:#000;stroke-miterlimit:10;}.cls-7{fill:#90ee90;stroke-width:2px;}</style></defs><title>favicon</title><rect class="cls-1" width="611" height="573"/><path class="cls-2" d="M441.4,392.51V418c-32.07,0-76.07-28.6-122.56-28.6-27.39,0-44.56,11.3-54.88,22.6H250.17l-17-79.19Z" transform="translate(54 36)"/><path class="cls-3" d="M250.17,332.82V412h-13.8c-10.31-11.3-27.48-22.6-54.87-22.6C135,389.41,91,418,58.94,418v-25.5Z" transform="translate(54 36)"/><path class="cls-4" d="M441.4,135.76V392.51c-32.07,0-76.07-28.6-122.56-28.6-27.39,0-44.56,11.31-54.88,22.6H250.17l-34-117.07,34-117.07s13.89-45.21,68.67-45.21C365.33,107.16,409.33,135.76,441.4,135.76Z" transform="translate(54 36)"/><path class="cls-5" d="M250.17,152.37V386.51h-13.8c-10.31-11.3-27.48-22.6-54.87-22.6-46.49,0-90.49,28.6-122.56,28.6V135.76c32.07,0,76.07-28.6,122.56-28.6C236.28,107.16,250.17,152.37,250.17,152.37Z" transform="translate(54 36)"/><path d="M256.54,367.61V177.27a6.38,6.38,0,0,0-12.75,0V367.61a6.38,6.38,0,1,0,12.75,0Z" transform="translate(54 36)"/><path d="M441.4,129.39c-13.48,0-30.27-5.81-48-12-22.52-7.8-48-16.63-74.51-16.63-30.62,0-49.31,13.42-59.59,24.68a77.85,77.85,0,0,0-9.08,12.17,77.85,77.85,0,0,0-9.08-12.17c-10.29-11.26-29-24.68-59.6-24.68-26.47,0-52,8.83-74.5,16.63-17.78,6.16-34.58,12-48,12a6.38,6.38,0,0,0-6.38,6.38V392.52a6.38,6.38,0,0,0,6.38,6.37c15.62,0,33.4-6.16,52.22-12.67,21.56-7.47,46-15.93,70.33-15.93,20.86,0,37.74,6.9,50.18,20.52a6.37,6.37,0,1,0,9.41-8.59c-10.28-11.26-29-24.68-59.59-24.68-26.47,0-52,8.83-74.5,16.63-15.08,5.22-29.44,10.19-41.68,11.59V141.82c14-1.33,29.54-6.71,45.85-12.35,21.56-7.47,46-15.94,70.33-15.94,49.19,0,62.07,39.07,62.58,40.71a6.38,6.38,0,0,0,12.19,0c.13-.41,13.08-40.71,62.58-40.71,24.33,0,48.77,8.47,70.34,15.94,16.3,5.64,31.83,11,45.84,12.35V385.76c-12.23-1.4-26.6-6.37-41.67-11.59-22.52-7.8-48-16.63-74.51-16.63-30.62,0-49.31,13.42-59.59,24.68a6.37,6.37,0,0,0,9.42,8.59c12.43-13.62,29.32-20.52,50.17-20.52,24.33,0,48.77,8.46,70.34,15.93,18.82,6.52,36.6,12.67,52.22,12.67a6.37,6.37,0,0,0,6.37-6.37V135.77A6.37,6.37,0,0,0,441.4,129.39Z" transform="translate(54 36)"/><path d="M441.4,411.64c-13.48,0-30.27-5.82-48-12-22.52-7.8-48-16.64-74.51-16.64-28.76,0-47,11.84-57.62,22.61H239.11C228.48,394.87,210.25,383,181.49,383c-26.47,0-52,8.84-74.5,16.64-17.78,6.15-34.58,12-48,12a6.38,6.38,0,1,0,0,12.75c15.62,0,33.4-6.16,52.22-12.68,21.56-7.46,46-15.93,70.33-15.93,20.86,0,37.74,6.91,50.18,20.53a6.38,6.38,0,0,0,4.71,2.08H264a6.36,6.36,0,0,0,4.7-2.08c12.44-13.62,29.33-20.53,50.18-20.53,24.33,0,48.77,8.47,70.34,15.93,18.82,6.52,36.6,12.68,52.22,12.68a6.38,6.38,0,0,0,0-12.75Z" transform="translate(54 36)"/><path class="cls-6" d="M195,368.34" transform="translate(54 36)"/><path class="cls-7" d="M168.73,174.08v157H140.08v-157Z" transform="translate(54 36)"/><path class="cls-7" d="M330.91,195.8H286.18v-24H404.76v24h-45.2v133H330.91Z" transform="translate(54 36)"/></svg>