<svg id="Layer_1" data-name="Layer 1" xmlns="http://www.w3.org/2000/svg" viewBox="0 0 1366 500"><defs><style>.cls-1{fill:#4169e1;}.cls-2{fill:#a9a9a9;}.cls-3{fill:#d0d0d0;}.cls-4{fill:#d8d8d8;}.cls-5{fill:#e8e8e8;}.cls-6,.cls-7{fill:#fff;}.cls-7,.cls-8{stroke:#000;stroke-miterlimit:10;}.cls-8,.cls-9{fill:#90ee90;}.cls-8{stroke-width:2px;}.cls-10{fill:#3e3d42;}.cls-11{fill:#57565c;}</style></defs><title>logo</title><rect class="cls-1" width="1366" height="500"/><path class="cls-2" d="M1280.74,417.82v33c-41.54,0-98.54-37.05-158.77-37.05-35.49,0-57.73,14.65-71.1,29.28H1033l-22-102.6Z"/><path class="cls-3" d="M1033,340.48v102.6h-17.87c-13.37-14.63-35.61-29.28-71.1-29.28-60.23,0-117.23,37.05-158.77,37.05v-33Z"/><path class="cls-4" d="M1280.74,85.2V417.82c-41.54,0-98.54-37.05-158.77-37.05-35.49,0-57.73,14.65-71.1,29.28H1033L989,258.38l44-151.67s18-58.56,89-58.56C1182.2,48.15,1239.2,85.2,1280.74,85.2Z"/><path class="cls-5" d="M1033,106.71V410.05h-17.87c-13.37-14.65-35.61-29.28-71.1-29.28-60.23,0-117.23,37.05-158.77,37.05V85.2c41.54,0,98.55-37.05,158.77-37.05C1015,48.15,1033,106.71,1033,106.71Z"/><path d="M1041.26,385.56V139a8.26,8.26,0,0,0-16.52,0V385.56a8.26,8.26,0,0,0,16.52,0Z"/><path d="M1280.74,76.94c-17.46,0-39.21-7.53-62.25-15.51-29.17-10.1-62.23-21.55-96.52-21.55-39.68,0-63.88,17.39-77.2,32A100.34,100.34,0,0,0,1033,87.63a100.34,100.34,0,0,0-11.77-15.77c-13.32-14.59-37.52-32-77.2-32-34.29,0-67.35,11.45-96.52,21.55-23,8-44.79,15.51-62.25,15.51A8.26,8.26,0,0,0,777,85.2V417.83a8.25,8.25,0,0,0,8.26,8.25c20.24,0,43.27-8,67.65-16.41C880.85,400,912.52,389,944,389c27,0,48.89,8.94,65,26.59a8.26,8.26,0,0,0,12.2-11.14c-13.32-14.58-37.53-32-77.2-32-34.29,0-67.36,11.45-96.53,21.55-19.52,6.76-38.13,13.2-54,15v-316c18.15-1.73,38.26-8.7,59.39-16C880.85,67.36,912.52,56.4,944,56.4c63.73,0,80.4,50.61,81.07,52.73a8.26,8.26,0,0,0,15.79,0c.17-.52,16.94-52.73,81.08-52.73,31.51,0,63.18,11,91.12,20.64,21.13,7.31,41.24,14.28,59.39,16v316c-15.85-1.81-34.46-8.25-54-15-29.17-10.1-62.23-21.55-96.52-21.55-39.68,0-63.88,17.39-77.2,32A8.26,8.26,0,1,0,1057,415.62C1073.08,398,1095,389,1122,389c31.51,0,63.18,11,91.12,20.64,24.38,8.44,47.41,16.41,67.65,16.41a8.25,8.25,0,0,0,8.26-8.25V85.2A8.26,8.26,0,0,0,1280.74,76.94Z"/><path d="M1280.74,442.6c-17.46,0-39.21-7.53-62.25-15.51-29.17-10.1-62.23-21.55-96.52-21.55-37.26,0-60.88,15.34-74.65,29.29h-28.64c-13.77-13.94-37.39-29.28-74.65-29.28-34.29,0-67.36,11.45-96.53,21.55-23,8-44.78,15.51-62.24,15.51a8.26,8.26,0,0,0,0,16.52c20.24,0,43.27-8,67.65-16.42,27.94-9.68,59.61-20.64,91.12-20.64,27,0,48.89,8.94,65,26.59a8.28,8.28,0,0,0,6.1,2.69h35.74a8.25,8.25,0,0,0,6.09-2.69c16.12-17.65,38-26.59,65-26.59,31.51,0,63.18,11,91.12,20.64,24.38,8.44,47.41,16.42,67.65,16.42a8.26,8.26,0,0,0,0-16.52Z"/><path class="cls-6" d="M22.94,135.17H49.2V316.55h86.92v22H22.94Z"/><path class="cls-6" d="M175.05,270.37c.6,35.92,23.54,50.71,50.1,50.71,19,0,30.48-3.32,40.44-7.55l4.53,19c-9.36,4.22-25.35,9.05-48.59,9.05-45,0-71.83-29.58-71.83-73.64s26-78.77,68.51-78.77c47.68,0,60.36,41.95,60.36,68.81a100.2,100.2,0,0,1-.91,12.37Zm77.86-19c.31-16.9-6.94-43.16-36.82-43.16-26.86,0-38.63,24.75-40.74,43.16Z"/><path class="cls-6" d="M392.35,338.58l-2.12-18.41h-.9c-8.15,11.47-23.84,21.73-44.67,21.73C315.09,341.9,300,321.08,300,300c0-35.31,31.38-54.62,87.82-54.32v-3c0-12.07-3.32-33.8-33.2-33.8-13.58,0-27.76,4.22-38,10.86l-6-17.5c12.07-7.85,29.58-13,48-13,44.66,0,55.53,30.48,55.53,59.76v54.62c0,12.68.6,25.05,2.41,35ZM388.42,264c-29-.61-61.87,4.52-61.87,32.89,0,17.21,11.47,25.35,25.05,25.35,19,0,31.09-12.07,35.32-24.44a27.92,27.92,0,0,0,1.5-8.45Z"/><path class="cls-6" d="M456.93,238.08c0-17.2-.3-32-1.2-45.57H479l.9,28.67h1.21c6.64-19.62,22.63-32,40.44-32a29,29,0,0,1,7.55.9v25a40.22,40.22,0,0,0-9.06-.9c-18.71,0-32,14.18-35.61,34.1a74.08,74.08,0,0,0-1.21,12.38v77.86H456.93Z"/><path class="cls-6" d="M556.83,232c0-15.08-.3-27.46-1.21-39.53h23.55l1.5,24.14h.61c7.24-13.88,24.14-27.46,48.29-27.46,20.22,0,51.6,12.07,51.6,62.17v87.22H654.62v-84.2c0-23.54-8.76-43.16-33.81-43.16-17.5,0-31.08,12.37-35.61,27.16a38.14,38.14,0,0,0-1.81,12.38v87.82H556.83Z"/><path class="cls-7" d="M961.5,386.5"/><path class="cls-8" d="M930.09,140V343.43H893V140Z"/><path class="cls-8" d="M1142.78,170.75h-57.94V139.67h153.61v31.08H1179.9V343.08h-37.12Z"/><path class="cls-9" d="M702.33,408.33l39.35-38.91-51-21.36Z"/><path class="cls-10" d="M675.57,351l5.85,30.13,5.84,30.14,15.07-2.92-11.69-60.27Z"/><path class="cls-9" d="M360,443.46a30.71,30.71,0,0,0,36,24.29l25.11-4.87,1.2-.23-11.7-60.27-26.27,5.1A30.69,30.69,0,0,0,360,443.43v0Z"/><path class="cls-9" d="M687.26,411.25l-5.84-30.14L675.57,351,424.82,399.62l11.69,60.27Z"/><path class="cls-11" d="M422.31,462.65l13.86-2.7.34-.06-11.69-60.27-14.21,2.76Z"/><path d="M355,444.44a35.84,35.84,0,0,0,42,28.33L703.3,413.34a5.06,5.06,0,0,0,2.62-1.38l39.37-38.91a5.14,5.14,0,0,0,.07-7.24,6.38,6.38,0,0,0-.8-.66,4.85,4.85,0,0,0-.9-.48l-51-21.33a5.14,5.14,0,0,0-3-.3L383.33,402.47a35.84,35.84,0,0,0-28.33,42Zm341.33-40.17-5,1L681.57,355l5-1Zm-15.06,2.93L440.22,454l-3.9-20.09,241.05-46.76Zm-5.84-30.13L434.37,423.83l-3.88-20.11,241-46.74ZM430.17,455.92l-5,1-9.75-50.24,5-1Zm275.36-58-8-41.49,35.13,14.7ZM385.27,412.5l20.1-3.89,9.74,50.22L395,462.73a25.58,25.58,0,0,1-9.74-50.22Z"/></svg>